<?xml version="1.0" encoding="UTF-8" standalone="no"?>
<!DOCTYPE svg PUBLIC "-//W3C//DTD SVG 1.1//EN" "http://www.w3.org/Graphics/SVG/1.1/DTD/svg11.dtd">
<svg width="100%" height="100%" viewBox="0 0 10417 4586" version="1.1" xmlns="http://www.w3.org/2000/svg" xmlns:xlink="http://www.w3.org/1999/xlink" xml:space="preserve" xmlns:serif="http://www.serif.com/" style="fill-rule:evenodd;clip-rule:evenodd;stroke-linejoin:round;stroke-miterlimit:2;">
    <g transform="matrix(1,0,0,1,0,-2955.58)">
        <g transform="matrix(4.16667,0,0,4.16667,0,0)">
            <g transform="matrix(1,0,0,0.440217,0,709.339)">
                <rect x="0" y="0" width="2500" height="2500" style="fill:white;fill-rule:nonzero;"/>
            </g>
            <path d="M1241.68,1200.92C1243.95,1217.96 1245.52,1231.24 1246.57,1240.79C1175.86,1137.3 1017,1042.13 898.04,985.442C797.16,937.382 651.43,882.472 651.43,882.472L769.75,757.312C828.49,775.852 954.62,823.932 1093.28,928.062C1215.38,1019.74 1234.11,1083.17 1234.11,1083.17C1235.81,1123.08 1238.56,1177.51 1241.68,1200.92Z" style="fill:rgb(35,31,32);fill-rule:nonzero;"/>
            <path d="M1248.41,1259.28C1248.41,1259.28 1247.34,1261.9 1245.5,1265.91C1245.5,1265.91 1167.46,1176.49 1027.5,1105.81C887.54,1035.13 605.66,962.382 605.66,962.382L642.55,918.672C642.55,918.672 872.38,991.052 1031,1077.82C1194.75,1167.39 1248.41,1259.28 1248.41,1259.28Z" style="fill:rgb(35,31,32);fill-rule:nonzero;"/>
            <path d="M865.85,1065.92C1020.09,1106.36 1108.82,1159.6 1108.82,1159.6C1108.82,1159.6 921.679,1089.43 762.28,1065.92C650.939,1049.51 590.64,1038.88 590.64,1038.88L587.91,1008.82C587.91,1008.82 729.536,1030.18 865.85,1065.92Z" style="fill:rgb(35,31,32);fill-rule:nonzero;"/>
            <path d="M721.69,1198.88C844.85,1194.68 993.91,1216.38 993.91,1216.38C993.91,1216.38 797.27,1210.78 688.8,1221.97C621.27,1228.94 569.74,1236.73 540.46,1241.61C548.01,1229.21 555.22,1217.2 561.59,1206.32C589.81,1204.53 643.06,1201.56 721.69,1198.88Z" style="fill:rgb(35,31,32);fill-rule:nonzero;"/>
            <path d="M570.1,1191.54C552.13,1192.08 538.29,1192.6 530.07,1192.93C539.16,1171.2 558.55,1124.63 570.38,1094.45C628.3,1093.23 757.48,1092.44 862.35,1105.81C1002.08,1123.61 1150.63,1173.28 1243.37,1270.41C1241.32,1274.63 1238.76,1279.59 1235.88,1284.45C1235.88,1284.45 1103.78,1218.48 953.32,1199.58C841.45,1185.53 657.23,1188.89 570.1,1191.54Z" style="fill:rgb(35,31,32);fill-rule:nonzero;"/>
            <path d="M1232.19,1290.34C1230.62,1292.69 1228.99,1294.93 1227.33,1296.94C1216.07,1310.57 1196.52,1330.12 1196.52,1330.12C1196.52,1330.12 1086.51,1312.09 880.24,1323.7C673.97,1335.31 462.23,1366.04 462.23,1366.04C462.23,1366.04 496.62,1312.76 529.18,1259.99C593.38,1249.63 802.28,1218.68 950.52,1228.97C1127.66,1241.27 1232.19,1290.34 1232.19,1290.34Z" style="fill:rgb(35,31,32);fill-rule:nonzero;"/>
            <path d="M1160.11,1333.62C1160.11,1333.62 1174.85,1366.27 1187.5,1379.44C1187.5,1379.44 933.32,1373.43 780.07,1376.56C626.82,1379.69 418.85,1391.41 418.85,1391.41L420.41,1383.6C420.41,1383.6 693.28,1359.36 873.9,1349.98C1054.51,1340.59 1160.11,1333.62 1160.11,1333.62Z" style="fill:rgb(35,31,32);fill-rule:nonzero;"/>
            <path d="M1326.86,1336.33C1326.86,1336.33 1274.99,1363.59 1254.45,1370.96C1233.91,1378.34 1217.76,1377.32 1204.07,1368.36C1190.37,1359.41 1182.25,1345.51 1182.25,1345.51C1182.25,1345.51 1201.75,1345.35 1211.86,1340.83C1236.62,1329.77 1251.26,1279.91 1257.05,1282.55C1262.84,1285.18 1300.41,1321.65 1326.86,1336.33Z" style="fill:rgb(35,31,32);fill-rule:nonzero;"/>
            <path d="M2081.15,1379.89L2079.6,1393.09C2079.6,1393.09 1736.4,1382.22 1592.75,1381.44C1449.11,1380.66 1263.67,1384.22 1263.67,1384.22C1316.01,1363.78 1350.87,1338.54 1350.87,1338.54C1350.87,1338.54 1470.6,1349.17 1544.4,1353.02C1618.19,1356.87 2081.15,1379.89 2081.15,1379.89Z" style="fill:rgb(35,31,32);fill-rule:nonzero;"/>
            <path d="M1998.85,1298.36C2007.56,1313.11 2042.93,1352.19 2052.41,1362.57C1972.65,1359 1824.1,1344.89 1663.11,1328.63C1466.11,1308.74 1352.19,1331.5 1352.19,1331.5C1338.34,1324.73 1322.38,1313.87 1307.71,1302.83C1327.75,1292.99 1384.11,1267.52 1450.71,1256.76C1534.13,1243.28 1659.9,1252.27 1788.25,1267.03C1879.98,1277.58 1959.91,1290.42 1998.05,1296.89C1998.31,1297.41 1998.58,1297.9 1998.85,1298.36Z" style="fill:rgb(35,31,32);fill-rule:nonzero;"/>
            <path d="M1968.56,1180.33C1977.73,1207.82 1984.35,1249.66 1991.26,1276.59C1848.05,1245.67 1581.93,1218.34 1466.47,1238.1C1353.67,1257.41 1296.74,1294.44 1296.74,1294.44C1293.75,1292.01 1284.14,1284.17 1281.48,1281.95C1401.73,1187.6 1538.57,1175 1626.26,1171.02C1701.63,1167.59 1910.97,1176.93 1968.32,1179.62C1968.4,1179.86 1968.48,1180.1 1968.56,1180.33Z" style="fill:rgb(35,31,32);fill-rule:nonzero;"/>
            <path d="M1961.17,1161.89L1664.13,1154.41L1940.48,1123.31C1947.43,1134.88 1955.06,1148.53 1961.17,1161.89Z" style="fill:rgb(35,31,32);fill-rule:nonzero;"/>
            <path d="M1930.96,1108.01C1884.28,1113.63 1789.62,1125.18 1739.77,1132.18C1671.94,1141.71 1509.74,1163.07 1449.95,1183.19C1387.01,1204.37 1347.53,1222.27 1325.98,1238.1C1304.42,1253.94 1277.05,1277.68 1277.05,1277.68L1273.52,1275.21C1271.81,1273.74 1270.24,1272.38 1268.83,1271.15L1269.06,1270.89C1269.06,1270.89 1353.37,1178.48 1395.76,1146.57C1438.15,1114.65 1534.04,1069.95 1638.87,1033.52C1743.7,997.082 1847.4,970.732 1847.4,970.732L1958.4,1104.71C1958.4,1104.71 1947.8,1105.97 1930.96,1108.01Z" style="fill:rgb(35,31,32);fill-rule:nonzero;"/>
            <path d="M1777.05,845.442C1821.4,887.602 1879.56,937.042 1879.56,937.042C1879.56,937.042 1694.9,985.752 1568.41,1038.82C1441.91,1091.89 1370.67,1137.69 1343.04,1168.95C1315.42,1200.21 1260.79,1264.01 1260.79,1264.01C1260.79,1264.01 1251.28,1145.68 1248.9,1111.79C1246.52,1077.9 1250.69,1029.74 1250.69,1029.74C1250.69,1029.74 1298.7,944.312 1370.67,879.612C1442.64,814.902 1654.92,730.572 1654.92,730.572C1654.92,730.572 1732.71,803.272 1777.05,845.442Z" style="fill:rgb(35,31,32);fill-rule:nonzero;"/>
            <path d="M554.614,1581.13C554.614,1599.16 556.081,1630.39 557.129,1633.12C561.95,1636.47 569.706,1637.52 573.898,1637.52C593.811,1637.52 602.195,1626.41 602.195,1611.95C602.195,1598.53 593.602,1582.39 579.348,1574.85C570.963,1570.45 559.645,1569.19 554.614,1569.82L554.614,1581.13ZM554.614,1563.53C561.112,1563.53 571.802,1562.27 579.767,1556.4C587.522,1550.74 591.924,1540.68 591.924,1529.99C591.924,1511.96 580.815,1499.81 563.627,1499.81C560.273,1499.81 557.129,1500.23 555.243,1501.06C554.824,1503.16 554.614,1532.92 554.614,1551.79L554.614,1563.53ZM531.976,1558.71C531.976,1543.61 531.347,1510.92 530.509,1502.32C523.382,1501.06 514.998,1500.64 508.919,1500.23L507.871,1495.82C514.788,1495.61 554.824,1494.15 568.029,1494.15C608.903,1494.15 615.191,1511.54 615.191,1521.4C615.191,1527.47 614.981,1532.71 609.741,1541.1C601.986,1553.26 589.619,1559.96 582.702,1562.9L582.702,1563.53C603.453,1566.88 625.672,1581.76 625.672,1603.98C625.672,1628.09 605.968,1644.23 576.833,1644.23C573.898,1644.23 566.771,1643.81 559.225,1643.39C551.889,1642.97 544.133,1642.55 539.731,1642.55C535.12,1642.55 513.95,1642.97 507.871,1643.39L508.709,1638.99C513.53,1638.57 526.107,1637.31 530.509,1636.05C531.976,1621.59 531.976,1590.36 531.976,1571.91L531.976,1558.71Z" style="fill:rgb(35,31,32);fill-rule:nonzero;"/>
            <path d="M802.375,1576.73C802.375,1532.3 771.562,1500.44 736.767,1500.44C708.05,1500.44 676.609,1519.72 676.609,1562.9C676.609,1600.42 706.792,1637.31 747.667,1637.31C777.641,1637.31 802.375,1610.27 802.375,1576.73ZM672.626,1622.43C657.325,1606.71 652.503,1591.41 652.503,1571.7C652.503,1530.2 686.67,1492.47 744.522,1492.47C766.741,1492.47 784.348,1496.03 802.584,1509.45C819.144,1521.61 827.947,1541.94 827.947,1561.43C827.947,1612.79 788.96,1645.9 737.396,1645.9C716.225,1645.9 692.12,1642.34 672.626,1622.43Z" style="fill:rgb(35,31,32);fill-rule:nonzero;"/>
            <path d="M1000.88,1576.73C1000.88,1532.3 970.063,1500.44 935.269,1500.44C906.552,1500.44 875.11,1519.72 875.11,1562.9C875.11,1600.42 905.294,1637.31 946.168,1637.31C976.142,1637.31 1000.88,1610.27 1000.88,1576.73ZM871.127,1622.43C855.826,1606.71 851.005,1591.41 851.005,1571.7C851.005,1530.2 885.171,1492.47 943.024,1492.47C965.243,1492.47 982.85,1496.03 1001.09,1509.45C1017.65,1521.61 1026.45,1541.94 1026.45,1561.43C1026.45,1612.79 987.461,1645.9 935.897,1645.9C914.727,1645.9 890.622,1642.34 871.127,1622.43Z" style="fill:rgb(35,31,32);fill-rule:nonzero;"/>
            <path d="M1067.96,1556.82C1067.96,1537.12 1067.54,1507.98 1066.91,1502.32C1061.88,1501.48 1049.51,1499.81 1044.48,1499.39L1043.85,1494.99C1048.04,1495.4 1072.15,1495.82 1080.74,1495.82C1088.5,1495.82 1111.13,1495.4 1115.12,1494.99L1114.28,1499.39C1111.76,1499.81 1097.72,1501.48 1092.9,1502.32C1092.06,1509.03 1091.85,1541.52 1091.85,1558.71L1091.85,1565.2C1105.48,1553.26 1153.06,1512.59 1159.14,1502.32C1154.31,1501.06 1148.24,1500.02 1143.62,1499.39L1142.79,1494.99C1151.59,1495.4 1166.47,1495.82 1174.65,1495.82C1180.73,1495.82 1190.37,1495.4 1197.49,1494.99L1196.24,1499.39C1193.09,1499.81 1187.85,1500.44 1182.4,1501.9C1173.39,1506.72 1134.4,1539.42 1125.6,1547.39C1133.77,1560.38 1194.14,1636.26 1205.04,1646.32L1197.91,1648.63C1181.56,1642.34 1110.93,1570.03 1105.06,1563.74C1101.07,1566.67 1094.58,1572.12 1091.85,1574.64L1091.85,1579.67C1091.85,1597.9 1092.06,1627.25 1092.9,1635C1098.35,1637.31 1113.65,1638.57 1116.79,1638.99L1117.21,1643.39C1113.23,1642.97 1091.01,1642.55 1079.69,1642.55C1069.84,1642.55 1049.93,1642.97 1043.85,1643.39L1044.69,1638.99C1049.72,1638.57 1061.88,1637.31 1066.91,1636.05C1067.54,1626.83 1067.96,1598.74 1067.96,1568.77L1067.96,1556.82Z" style="fill:rgb(35,31,32);fill-rule:nonzero;"/>
            <path d="M1267.08,1663.72C1267.5,1660.79 1270.44,1637.52 1270.44,1629.35C1270.44,1623.9 1271.7,1601.26 1271.07,1596.23L1275.89,1597.48C1275.68,1600.21 1276.73,1612.16 1277.36,1615.93C1283.02,1629.35 1295.38,1638.78 1309.85,1638.78C1326.4,1638.78 1339.61,1627.88 1339.61,1612.37C1339.61,1595.39 1326.4,1587 1312.78,1578.2C1292.24,1564.78 1275.89,1553.05 1275.89,1529.36C1275.89,1513.01 1288.05,1492.47 1319.07,1492.47C1331.44,1492.47 1342.33,1494.99 1347.37,1496.24C1348.83,1491.21 1349.88,1484.92 1351.14,1479.26L1355.96,1478.64C1353.02,1499.39 1350.93,1518.88 1350.93,1536.07L1346.11,1533.97C1346.11,1526.85 1345.69,1521.82 1345.27,1518.04C1342.96,1510.5 1332.06,1499.18 1317.39,1499.18C1299.36,1499.18 1291.82,1510.71 1291.82,1520.14C1291.82,1533.76 1306.07,1541.1 1322,1551.16C1339.4,1562.06 1357.01,1573.8 1357.01,1600.21C1357.01,1629.35 1333.95,1645.9 1305.44,1645.9C1295.38,1645.9 1282.39,1643.81 1276.52,1640.66C1275.47,1644.65 1273.37,1654.71 1271.91,1662.46L1267.08,1663.72Z" style="fill:rgb(35,31,32);fill-rule:nonzero;"/>
            <path d="M1435.82,1555.98C1435.82,1540.47 1435.4,1509.45 1434.77,1504.63C1401.23,1504.63 1386.14,1509.87 1380.48,1513.43C1378.81,1518.04 1377.55,1526.22 1376.29,1533.13L1371.47,1534.39C1372.31,1524.33 1374.82,1498.13 1374.61,1481.57L1379.44,1482.41C1379.65,1485.13 1380.06,1491.63 1380.69,1496.03C1384.05,1496.66 1420.1,1498.13 1448.4,1498.13C1478.79,1498.13 1515.05,1496.66 1518.41,1496.03C1519.24,1493.52 1520.5,1487.02 1521.34,1483.04L1526.58,1482.2C1525.32,1487.02 1520.5,1529.99 1519.87,1536.28L1515.05,1535.02C1515.47,1526.64 1515.68,1518.04 1515.47,1513.43C1510.23,1509.24 1481.1,1504.63 1460.76,1504.63C1460.14,1510.29 1459.72,1540.89 1459.72,1555.98L1459.72,1565.41C1459.72,1583.86 1460.14,1619.28 1460.76,1636.05C1464.75,1636.68 1483.82,1638.57 1487.8,1638.99L1488.64,1643.39C1483.61,1642.97 1459.09,1642.55 1447.56,1642.55C1438.13,1642.55 1412.97,1642.97 1406.89,1643.39L1407.94,1638.99C1412.76,1638.57 1429.74,1636.68 1434.77,1636.05C1435.4,1619.7 1435.82,1583.65 1435.82,1565.41L1435.82,1555.98Z" style="fill:rgb(35,31,32);fill-rule:nonzero;"/>
            <path d="M1683.16,1576.73C1683.16,1532.3 1652.35,1500.44 1617.55,1500.44C1588.84,1500.44 1557.4,1519.72 1557.4,1562.9C1557.4,1600.42 1587.58,1637.31 1628.45,1637.31C1658.43,1637.31 1683.16,1610.27 1683.16,1576.73ZM1553.41,1622.43C1538.11,1606.71 1533.29,1591.41 1533.29,1571.7C1533.29,1530.2 1567.46,1492.47 1625.31,1492.47C1647.53,1492.47 1665.13,1496.03 1683.37,1509.45C1699.93,1521.61 1708.73,1541.94 1708.73,1561.43C1708.73,1612.79 1669.75,1645.9 1618.18,1645.9C1597.01,1645.9 1572.91,1642.34 1553.41,1622.43Z" style="fill:rgb(35,31,32);fill-rule:nonzero;"/>
            <path d="M1773.51,1568.56C1781.05,1568.56 1790.07,1567.93 1799.08,1564.58C1808.09,1561.22 1822.98,1551.58 1822.98,1530.83C1822.98,1517.41 1810.82,1501.06 1774.56,1501.06C1773.93,1509.66 1773.51,1547.18 1773.51,1562.06L1773.51,1568.56ZM1750.03,1554.1C1750.03,1546.55 1749.82,1506.3 1748.98,1502.32C1745.42,1501.48 1731.17,1500.23 1726.55,1499.81L1725.93,1495.4L1771.2,1495.2C1791.11,1495.2 1816.06,1495.4 1830.31,1501.06C1841.42,1505.47 1848.34,1513.43 1848.34,1524.96C1848.34,1538.16 1834.92,1555.56 1818.78,1564.58C1821.09,1569.82 1854.84,1624.73 1876.64,1647.79L1867.41,1649.26C1852.74,1642.55 1796.98,1578.2 1793.63,1573.8C1785.66,1574.43 1777.07,1575.06 1773.51,1575.06L1773.51,1580.51C1773.51,1594.13 1773.93,1626.41 1774.56,1636.05C1778.12,1637.1 1791.95,1638.57 1796.56,1638.99L1797.4,1643.39C1792.16,1642.97 1770.99,1642.55 1761.35,1642.55C1752.76,1642.55 1730.75,1642.97 1725.93,1643.39L1726.76,1638.99C1729.7,1638.78 1743.11,1637.52 1748.98,1636.05C1749.82,1629.97 1750.03,1588.89 1750.03,1566.88L1750.03,1554.1Z" style="fill:rgb(35,31,32);fill-rule:nonzero;"/>
            <path d="M1907.03,1561.01C1907.03,1542.15 1906.4,1508.82 1905.56,1502.32C1901.58,1501.48 1888.79,1500.02 1883.76,1499.39L1882.92,1494.99C1887.95,1495.2 1894.87,1495.4 1901.79,1495.61C1908.7,1495.61 1915.62,1495.82 1920.23,1495.82C1926.94,1495.82 1976.2,1495.82 1981.86,1494.36C1982.49,1491.84 1983.12,1488.28 1983.53,1484.5L1988.36,1483.67C1987.31,1488.07 1984.58,1520.56 1984.16,1527.06L1979.55,1525.59C1979.55,1524.12 1979.76,1514.69 1979.55,1510.5C1975.78,1504.42 1943.5,1501.69 1932.39,1501.69C1931.76,1504.63 1930.92,1545.08 1930.92,1557.45L1930.92,1561.64C1948.95,1561.64 1969.28,1560.17 1974.31,1558.29C1975.36,1555.14 1975.99,1552.21 1976.41,1549.27L1980.81,1548.86C1980.18,1552.63 1976.41,1581.34 1975.36,1588.05L1971.38,1586.37C1971.59,1581.97 1971.8,1576.52 1971.8,1572.33C1965.3,1568.98 1948.95,1567.72 1930.92,1567.72L1930.92,1571.91C1930.92,1584.7 1931.76,1630.39 1932.39,1636.47C1953.35,1636.47 1973.05,1634.79 1982.7,1629.35C1985,1622.01 1986.05,1615.51 1987.31,1610.9L1992.13,1609.64C1990.66,1615.72 1986.05,1647.58 1985.21,1658.06L1980.81,1657.22C1980.81,1651.56 1980.81,1647.79 1980.6,1644.44C1974.52,1643.39 1927.99,1642.55 1914.78,1642.55C1907.66,1642.55 1891.1,1642.97 1882.92,1643.39L1883.97,1638.99C1887.32,1638.78 1899.9,1637.52 1905.56,1636.05C1906.4,1632.28 1907.03,1593.71 1907.03,1570.65L1907.03,1561.01Z" style="fill:rgb(35,31,32);fill-rule:nonzero;"/>
            <path d="M771.939,1766.64C768.759,1764.78 766.294,1762.14 764.544,1758.72C762.794,1755.3 761.919,1751.35 761.919,1746.85L761.919,1730.22C761.919,1725.72 762.794,1721.77 764.544,1718.35C766.294,1714.93 768.759,1712.29 771.939,1710.41C775.119,1708.54 778.806,1707.6 783,1707.6C786.472,1707.6 789.666,1708.31 792.583,1709.73C795.499,1711.14 797.936,1713.15 799.894,1715.75C801.852,1718.34 803.178,1721.35 803.873,1724.77L797.874,1724.77C797.207,1722.49 796.117,1720.48 794.603,1718.73C793.089,1716.98 791.318,1715.61 789.292,1714.64C787.264,1713.67 785.167,1713.18 783,1713.18C780.001,1713.18 777.362,1713.89 775.084,1715.31C772.807,1716.73 771.043,1718.72 769.793,1721.29C768.544,1723.86 767.919,1726.84 767.919,1730.22L767.919,1746.85C767.919,1750.24 768.544,1753.21 769.793,1755.78C771.043,1758.35 772.807,1760.34 775.084,1761.74C777.362,1763.14 780.001,1763.84 783,1763.84C785.167,1763.84 787.264,1763.39 789.292,1762.47C791.318,1761.55 793.089,1760.22 794.603,1758.47C796.117,1756.72 797.207,1754.65 797.874,1752.26L803.873,1752.26C803.178,1755.68 801.845,1758.69 799.874,1761.28C797.901,1763.88 795.457,1765.89 792.541,1767.3C789.625,1768.72 786.444,1769.43 783,1769.43C778.806,1769.43 775.119,1768.5 771.939,1766.64Z" style="fill:rgb(35,31,32);fill-rule:nonzero;"/>
            <path d="M863.075,1761.91C865.366,1760.62 867.109,1758.74 868.303,1756.28C869.497,1753.82 870.095,1750.86 870.095,1747.39L870.095,1729.64C870.095,1726.17 869.497,1723.2 868.303,1720.75C867.109,1718.29 865.366,1716.41 863.075,1715.12C860.783,1713.83 858.026,1713.18 854.805,1713.18C851.583,1713.18 848.827,1713.83 846.535,1715.12C844.244,1716.41 842.5,1718.29 841.307,1720.75C840.112,1723.2 839.515,1726.17 839.515,1729.64L839.515,1747.39C839.515,1750.86 840.112,1753.82 841.307,1756.28C842.5,1758.74 844.244,1760.62 846.535,1761.91C848.827,1763.2 851.583,1763.84 854.805,1763.84C858.026,1763.84 860.783,1763.2 863.075,1761.91ZM843.286,1766.8C840.105,1765.05 837.682,1762.51 836.016,1759.18C834.349,1755.85 833.516,1751.82 833.516,1747.1L833.516,1729.93C833.516,1725.21 834.349,1721.18 836.016,1717.85C837.682,1714.52 840.105,1711.98 843.286,1710.23C846.465,1708.48 850.306,1707.6 854.805,1707.6C859.304,1707.6 863.144,1708.48 866.324,1710.23C869.504,1711.98 871.928,1714.52 873.594,1717.85C875.261,1721.18 876.094,1725.21 876.094,1729.93L876.094,1747.1C876.094,1751.82 875.261,1755.85 873.594,1759.18C871.928,1762.51 869.504,1765.05 866.324,1766.8C863.144,1768.55 859.304,1769.43 854.805,1769.43C850.306,1769.43 846.465,1768.55 843.286,1766.8Z" style="fill:rgb(35,31,32);fill-rule:nonzero;"/>
            <path d="M954.689,1708.23L960.98,1708.23L960.98,1768.8L954.981,1768.8L954.981,1716.77L955.605,1719.43L937.358,1760.39L933.108,1760.39L914.861,1720.27L915.486,1716.77L915.486,1768.8L909.486,1768.8L909.486,1708.23L915.777,1708.23L935.233,1751.97L954.689,1708.23Z" style="fill:rgb(35,31,32);fill-rule:nonzero;"/>
            <path d="M1000.83,1739.72L1020.2,1739.72C1022.56,1739.72 1024.65,1739.18 1026.45,1738.1C1028.26,1737.01 1029.65,1735.5 1030.64,1733.56C1031.62,1731.61 1032.12,1729.36 1032.12,1726.81C1032.12,1724.22 1031.62,1721.95 1030.64,1720C1029.65,1718.04 1028.26,1716.52 1026.45,1715.43C1024.65,1714.35 1022.56,1713.81 1020.2,1713.81L1000.83,1713.81L1000.83,1708.23L1019.91,1708.23C1023.52,1708.23 1026.7,1709 1029.45,1710.54C1032.2,1712.08 1034.33,1714.25 1035.85,1717.06C1037.36,1719.86 1038.12,1723.11 1038.12,1726.81C1038.12,1730.47 1037.36,1733.7 1035.85,1736.49C1034.33,1739.28 1032.2,1741.45 1029.45,1742.99C1026.7,1744.53 1023.52,1745.31 1019.91,1745.31L1000.83,1745.31L1000.83,1739.72ZM996.456,1708.23L1002.46,1708.23L1002.46,1768.8L996.456,1768.8L996.456,1708.23Z" style="fill:rgb(35,31,32);fill-rule:nonzero;"/>
            <path d="M1070.76,1748.51L1102.63,1748.51L1102.63,1754.1L1070.76,1754.1L1070.76,1748.51ZM1082.8,1708.23L1090.05,1708.23L1112.38,1768.8L1105.71,1768.8L1086.42,1714.52L1067.14,1768.8L1060.47,1768.8L1082.8,1708.23Z" style="fill:rgb(35,31,32);fill-rule:nonzero;"/>
            <path d="M1142.02,1708.23L1148.06,1708.23L1183.23,1762.8L1180.77,1761.14L1180.77,1708.23L1186.77,1708.23L1186.77,1768.76L1180.64,1768.76L1144.77,1713.77L1148.02,1716.14L1148.02,1768.76L1142.02,1768.76L1142.02,1708.23Z" style="fill:rgb(35,31,32);fill-rule:nonzero;"/>
            <path d="M1240.87,1744.18L1240.87,1768.8L1234.87,1768.8L1234.87,1744.18L1215.16,1708.23L1221.7,1708.23L1237.87,1738.47L1254.03,1708.23L1260.57,1708.23L1240.87,1744.18Z" style="fill:rgb(35,31,32);fill-rule:nonzero;"/>
            <path d="M1340.6,1768.59C1337.99,1768.04 1335.56,1767.21 1333.29,1766.09C1331.03,1764.98 1328.91,1763.59 1326.94,1761.93L1330.56,1757.18C1333.09,1759.4 1335.88,1761.07 1338.94,1762.18C1341.99,1763.29 1345.31,1763.84 1348.9,1763.84C1354.09,1763.84 1358.11,1762.82 1360.96,1760.76C1363.8,1758.71 1365.23,1755.82 1365.23,1752.1L1365.23,1752.05C1365.23,1749.75 1364.61,1747.9 1363.37,1746.51C1362.14,1745.12 1360.54,1744.08 1358.58,1743.39C1356.62,1742.7 1354.1,1742.06 1351.02,1741.47C1350.94,1741.45 1350.85,1741.42 1350.75,1741.41C1350.65,1741.4 1350.55,1741.38 1350.44,1741.35L1349.23,1741.1C1344.98,1740.29 1341.58,1739.45 1339.02,1738.58C1336.47,1737.7 1334.29,1736.22 1332.5,1734.12C1330.71,1732.02 1329.81,1729.11 1329.81,1725.39L1329.81,1725.35C1329.81,1721.6 1330.65,1718.4 1332.34,1715.75C1334.02,1713.09 1336.47,1711.07 1339.69,1709.68C1342.91,1708.3 1346.78,1707.6 1351.31,1707.6C1353.45,1707.6 1355.57,1707.84 1357.67,1708.31C1359.76,1708.78 1361.83,1709.48 1363.87,1710.41C1365.91,1711.34 1367.94,1712.52 1369.94,1713.93L1366.39,1718.64C1363.78,1716.81 1361.23,1715.44 1358.73,1714.54C1356.23,1713.64 1353.76,1713.18 1351.31,1713.18C1346.37,1713.18 1342.54,1714.23 1339.81,1716.31C1337.09,1718.39 1335.73,1721.32 1335.73,1725.1L1335.73,1725.14C1335.73,1727.42 1336.41,1729.22 1337.77,1730.54C1339.13,1731.86 1340.82,1732.83 1342.83,1733.47C1344.85,1734.11 1347.6,1734.78 1351.1,1735.47C1351.21,1735.5 1351.33,1735.53 1351.46,1735.56C1351.58,1735.58 1351.71,1735.61 1351.85,1735.64C1352.02,1735.67 1352.18,1735.7 1352.33,1735.74C1352.49,1735.79 1352.65,1735.82 1352.81,1735.85C1356.62,1736.63 1359.78,1737.51 1362.31,1738.51C1364.84,1739.51 1366.94,1741.08 1368.62,1743.2C1370.3,1745.33 1371.14,1748.19 1371.14,1751.8L1371.14,1751.89C1371.14,1755.58 1370.27,1758.74 1368.52,1761.37C1366.77,1763.99 1364.23,1765.99 1360.92,1767.36C1357.6,1768.74 1353.59,1769.43 1348.9,1769.43C1345.98,1769.43 1343.22,1769.15 1340.6,1768.59Z" style="fill:rgb(35,31,32);fill-rule:nonzero;"/>
            <path d="M1407.12,1763.22L1441.78,1763.22L1441.78,1768.8L1407.12,1768.8L1407.12,1763.22ZM1402.87,1708.23L1408.87,1708.23L1408.87,1768.8L1402.87,1768.8L1402.87,1708.23Z" style="fill:rgb(35,31,32);fill-rule:nonzero;"/>
            <path d="M1498.9,1761.91C1501.19,1760.62 1502.93,1758.74 1504.13,1756.28C1505.32,1753.82 1505.92,1750.86 1505.92,1747.39L1505.92,1729.64C1505.92,1726.17 1505.32,1723.2 1504.13,1720.75C1502.93,1718.29 1501.19,1716.41 1498.9,1715.12C1496.61,1713.83 1493.85,1713.18 1490.63,1713.18C1487.41,1713.18 1484.65,1713.83 1482.36,1715.12C1480.07,1716.41 1478.32,1718.29 1477.13,1720.75C1475.94,1723.2 1475.34,1726.17 1475.34,1729.64L1475.34,1747.39C1475.34,1750.86 1475.94,1753.82 1477.13,1756.28C1478.32,1758.74 1480.07,1760.62 1482.36,1761.91C1484.65,1763.2 1487.41,1763.84 1490.63,1763.84C1493.85,1763.84 1496.61,1763.2 1498.9,1761.91ZM1479.11,1766.8C1475.93,1765.05 1473.51,1762.51 1471.84,1759.18C1470.17,1755.85 1469.34,1751.82 1469.34,1747.1L1469.34,1729.93C1469.34,1725.21 1470.17,1721.18 1471.84,1717.85C1473.51,1714.52 1475.93,1711.98 1479.11,1710.23C1482.29,1708.48 1486.13,1707.6 1490.63,1707.6C1495.13,1707.6 1498.97,1708.48 1502.15,1710.23C1505.33,1711.98 1507.75,1714.52 1509.42,1717.85C1511.09,1721.18 1511.92,1725.21 1511.92,1729.93L1511.92,1747.1C1511.92,1751.82 1511.09,1755.85 1509.42,1759.18C1507.75,1762.51 1505.33,1765.05 1502.15,1766.8C1498.97,1768.55 1495.13,1769.43 1490.63,1769.43C1486.13,1769.43 1482.29,1768.55 1479.11,1766.8Z" style="fill:rgb(35,31,32);fill-rule:nonzero;"/>
            <path d="M1585.89,1737.85L1585.89,1746.76C1585.89,1751.82 1585.1,1756.03 1583.54,1759.39C1581.97,1762.75 1579.61,1765.26 1576.47,1766.93C1573.34,1768.59 1569.41,1769.43 1564.68,1769.43C1559.91,1769.43 1555.93,1768.64 1552.75,1767.05C1549.57,1765.47 1547.19,1763.1 1545.6,1759.95C1544.02,1756.8 1543.23,1752.85 1543.23,1748.1L1543.23,1730.22C1543.23,1725.17 1544.01,1720.97 1545.58,1717.62C1547.15,1714.28 1549.5,1711.77 1552.64,1710.1C1555.78,1708.44 1559.71,1707.6 1564.43,1707.6C1568.35,1707.6 1571.73,1708.27 1574.56,1709.6C1577.39,1710.93 1579.71,1712.93 1581.52,1715.58C1583.32,1718.23 1584.61,1721.57 1585.39,1725.6L1578.89,1725.6C1578.17,1722.82 1577.16,1720.52 1575.87,1718.68C1574.58,1716.85 1572.98,1715.48 1571.08,1714.56C1569.18,1713.64 1566.96,1713.18 1564.43,1713.18C1561.05,1713.18 1558.23,1713.82 1555.98,1715.08C1553.73,1716.34 1552.04,1718.23 1550.91,1720.75C1549.79,1723.26 1549.23,1726.42 1549.23,1730.22L1549.23,1748.1C1549.23,1751.62 1549.8,1754.55 1550.94,1756.87C1552.07,1759.19 1553.79,1760.93 1556.08,1762.1C1558.37,1763.26 1561.24,1763.84 1564.68,1763.84C1568.04,1763.84 1570.81,1763.25 1573,1762.05C1575.18,1760.86 1576.81,1759.01 1577.91,1756.51C1579.01,1754.01 1579.56,1750.8 1579.56,1746.89L1579.56,1743.43L1564.89,1743.43L1564.89,1737.85L1585.89,1737.85Z" style="fill:rgb(35,31,32);fill-rule:nonzero;"/>
            <path d="M1622.07,1748.51L1653.94,1748.51L1653.94,1754.1L1622.07,1754.1L1622.07,1748.51ZM1634.11,1708.23L1641.36,1708.23L1663.69,1768.8L1657.03,1768.8L1637.74,1714.52L1618.45,1768.8L1611.78,1768.8L1634.11,1708.23Z" style="fill:rgb(35,31,32);fill-rule:nonzero;"/>
            <path d="M1693.34,1708.23L1699.38,1708.23L1734.54,1762.8L1732.08,1761.14L1732.08,1708.23L1738.08,1708.23L1738.08,1768.76L1731.96,1768.76L1696.09,1713.77L1699.34,1716.14L1699.34,1768.76L1693.34,1768.76L1693.34,1708.23Z" style="fill:rgb(35,31,32);fill-rule:nonzero;"/>
        </g>
    </g>
</svg>
